<mxfile host="app.diagrams.net" modified="2023-10-23T02:47:42.547Z" agent="Mozilla/5.0 (Windows NT 10.0; Win64; x64) AppleWebKit/537.36 (KHTML, like Gecko) Chrome/118.0.0.0 Safari/537.36 Edg/118.0.2088.61" etag="SevFxyUEOK7OGpZkndtD" version="22.0.6" type="device">
  <diagram name="PÃ¡gina-1" id="bSS8MPNG6agoIO48Kfog">
    <mxGraphModel dx="254" dy="162" grid="1" gridSize="10" guides="1" tooltips="1" connect="1" arrows="1" fold="1" page="1" pageScale="1" pageWidth="827" pageHeight="1169" math="0" shadow="0">
      <root>
        <mxCell id="0" />
        <mxCell id="1" parent="0" />
        <mxCell id="XCvI4g8o8YsKoiAPpfoa-1" value="" style="image;aspect=fixed;html=1;points=[];align=center;fontSize=12;image=img/lib/azure2/databases/Azure_Database_PostgreSQL_Server.svg;" vertex="1" parent="1">
          <mxGeometry x="650" y="184" width="82.5" height="110" as="geometry" />
        </mxCell>
        <mxCell id="XCvI4g8o8YsKoiAPpfoa-8" value="" style="endArrow=classic;startArrow=classic;html=1;rounded=0;" edge="1" parent="1" source="XCvI4g8o8YsKoiAPpfoa-9">
          <mxGeometry width="50" height="50" relative="1" as="geometry">
            <mxPoint x="520" y="262" as="sourcePoint" />
            <mxPoint x="640" y="240" as="targetPoint" />
          </mxGeometry>
        </mxCell>
        <mxCell id="XCvI4g8o8YsKoiAPpfoa-9" value="" style="sketch=0;html=1;dashed=0;whitespace=wrap;fillColor=#2875E2;strokeColor=#ffffff;points=[[0.005,0.63,0],[0.1,0.2,0],[0.9,0.2,0],[0.5,0,0],[0.995,0.63,0],[0.72,0.99,0],[0.5,1,0],[0.28,0.99,0]];verticalLabelPosition=bottom;align=center;verticalAlign=top;shape=mxgraph.kubernetes.icon;prIcon=api" vertex="1" parent="1">
          <mxGeometry x="490" y="200" width="80" height="76" as="geometry" />
        </mxCell>
        <mxCell id="XCvI4g8o8YsKoiAPpfoa-10" value="" style="verticalLabelPosition=bottom;verticalAlign=top;html=1;shadow=0;dashed=0;strokeWidth=1;shape=mxgraph.android.phone2;strokeColor=#c0c0c0;" vertex="1" parent="1">
          <mxGeometry x="170" y="294" width="50" height="86" as="geometry" />
        </mxCell>
        <mxCell id="XCvI4g8o8YsKoiAPpfoa-11" value="" style="shape=cylinder3;whiteSpace=wrap;html=1;boundedLbl=1;backgroundOutline=1;size=15;" vertex="1" parent="1">
          <mxGeometry x="280" y="299" width="50" height="70" as="geometry" />
        </mxCell>
        <mxCell id="XCvI4g8o8YsKoiAPpfoa-12" value="" style="endArrow=classic;startArrow=classic;html=1;rounded=0;entryX=0;entryY=0.5;entryDx=0;entryDy=0;entryPerimeter=0;exitX=0.993;exitY=0.49;exitDx=0;exitDy=0;exitPerimeter=0;" edge="1" parent="1" source="XCvI4g8o8YsKoiAPpfoa-10" target="XCvI4g8o8YsKoiAPpfoa-11">
          <mxGeometry width="50" height="50" relative="1" as="geometry">
            <mxPoint x="170" y="374" as="sourcePoint" />
            <mxPoint x="271" y="374" as="targetPoint" />
          </mxGeometry>
        </mxCell>
        <mxCell id="XCvI4g8o8YsKoiAPpfoa-13" value="SQLITE" style="text;html=1;strokeColor=none;fillColor=none;align=center;verticalAlign=middle;whiteSpace=wrap;rounded=0;" vertex="1" parent="1">
          <mxGeometry x="290" y="340" width="30" height="10" as="geometry" />
        </mxCell>
        <mxCell id="XCvI4g8o8YsKoiAPpfoa-14" value="" style="verticalLabelPosition=bottom;aspect=fixed;html=1;shape=mxgraph.salesforce.web;" vertex="1" parent="1">
          <mxGeometry x="170" y="80" width="60" height="47.400000000000006" as="geometry" />
        </mxCell>
        <mxCell id="XCvI4g8o8YsKoiAPpfoa-15" value="" style="verticalLabelPosition=bottom;aspect=fixed;html=1;shape=mxgraph.salesforce.web;" vertex="1" parent="1">
          <mxGeometry x="170" y="190" width="60" height="47.400000000000006" as="geometry" />
        </mxCell>
        <mxCell id="XCvI4g8o8YsKoiAPpfoa-16" value="Airport" style="text;html=1;strokeColor=none;fillColor=none;align=center;verticalAlign=middle;whiteSpace=wrap;rounded=0;" vertex="1" parent="1">
          <mxGeometry x="165" y="160" width="60" height="30" as="geometry" />
        </mxCell>
        <mxCell id="XCvI4g8o8YsKoiAPpfoa-17" value="User" style="text;html=1;strokeColor=none;fillColor=none;align=center;verticalAlign=middle;whiteSpace=wrap;rounded=0;" vertex="1" parent="1">
          <mxGeometry x="170" y="50.00000000000001" width="60" height="30" as="geometry" />
        </mxCell>
        <mxCell id="XCvI4g8o8YsKoiAPpfoa-18" value="" style="endArrow=classic;startArrow=classic;html=1;rounded=0;exitX=1.017;exitY=0.52;exitDx=0;exitDy=0;exitPerimeter=0;" edge="1" parent="1" source="XCvI4g8o8YsKoiAPpfoa-14">
          <mxGeometry width="50" height="50" relative="1" as="geometry">
            <mxPoint x="330" y="150" as="sourcePoint" />
            <mxPoint x="480" y="240" as="targetPoint" />
            <Array as="points">
              <mxPoint x="440" y="105" />
              <mxPoint x="440" y="240" />
              <mxPoint x="470" y="240" />
            </Array>
          </mxGeometry>
        </mxCell>
        <mxCell id="XCvI4g8o8YsKoiAPpfoa-21" value="" style="endArrow=classic;html=1;rounded=0;entryX=1.014;entryY=0.569;entryDx=0;entryDy=0;entryPerimeter=0;" edge="1" parent="1" target="XCvI4g8o8YsKoiAPpfoa-15">
          <mxGeometry width="50" height="50" relative="1" as="geometry">
            <mxPoint x="440" y="240" as="sourcePoint" />
            <mxPoint x="390" y="200" as="targetPoint" />
            <Array as="points">
              <mxPoint x="360" y="240" />
              <mxPoint x="360" y="220" />
            </Array>
          </mxGeometry>
        </mxCell>
      </root>
    </mxGraphModel>
  </diagram>
</mxfile>
